HIERARCHY
ROOT Hips
{
	OFFSET 0.00000 0.00000 0.00000
	CHANNELS 6 Xposition Yposition Zposition Zrotation Yrotation Xrotation 
	JOINT LHipJoint
	{
		OFFSET 0 0 0
		CHANNELS 3 Zrotation Yrotation Xrotation
		JOINT LeftHip
		{
			OFFSET 1.82298 -1.58346 0.87084
			CHANNELS 3 Zrotation Yrotation Xrotation
			JOINT LeftKnee
			{
				OFFSET 2.43790 -6.69809 0.00000
				CHANNELS 3 Zrotation Yrotation Xrotation
				JOINT LeftAnkle
				{
					OFFSET 2.59288 -7.12389 0.00000
					CHANNELS 3 Zrotation Yrotation Xrotation
					JOINT LeftToe
					{
						OFFSET 0.14552 -0.39981 2.13160
						CHANNELS 3 Zrotation Yrotation Xrotation
						End Site
						{
							OFFSET 0.00000 -0.00000 1.09427
						}
					}
				}
			}
		}
	}
	JOINT RHipJoint
	{
		OFFSET 0 0 0
		CHANNELS 3 Zrotation Yrotation Xrotation
		JOINT RightHip
		{
			OFFSET -1.77229 -1.58346 0.87084
			CHANNELS 3 Zrotation Yrotation Xrotation
			JOINT RightKnee
			{
				OFFSET -2.50703 -6.88801 0.00000
				CHANNELS 3 Zrotation Yrotation Xrotation
				JOINT RightAnkle
				{
					OFFSET -2.61620 -7.18796 0.00000
					CHANNELS 3 Zrotation Yrotation Xrotation
					JOINT RightToe
					{
						OFFSET -0.15190 -0.41735 2.15974
						CHANNELS 3 Zrotation Yrotation Xrotation
						End Site
						{
							OFFSET -0.00000 -0.00000 1.10919
						}
					}
				}
			}
		}
	}
	JOINT lowerback
	{
		OFFSET 0 0 0
		CHANNELS 3 Zrotation Yrotation Xrotation
		JOINT Chest
		{
			OFFSET -0.03602 2.12423 -0.30249
			CHANNELS 3 Zrotation Yrotation Xrotation
			JOINT Chest2
			{
				OFFSET 0.02717 2.10043 0.12912
				CHANNELS 3 Zrotation Yrotation Xrotation
				JOINT lowerneck
				{
					OFFSET 0 0 0
					CHANNELS 3 Zrotation Yrotation Xrotation
					JOINT Neck
					{
						OFFSET -0.06371 1.88656 0.11602
						CHANNELS 3 Zrotation Yrotation Xrotation
						JOINT Head
						{
							OFFSET 0.08208 1.87759 -0.11505
							CHANNELS 3 Zrotation Yrotation Xrotation
							End Site
							{
								OFFSET 0.03382 1.93090 -0.05483
							}
						}
					}
				}
				JOINT LeftCollar
				{
					OFFSET 0 0 0
					CHANNELS 3 Zrotation Yrotation Xrotation
					JOINT LeftShoulder
					{
						OFFSET 3.30903 1.40357 0.20156
CHANNELS 3 Zrotation Xrotation Yrotation
						JOINT LeftElbow
						{
OFFSET 0 -5.433010 0.000000
CHANNELS 3 Zrotation Xrotation Yrotation
							JOINT LeftWrist
							{
OFFSET 0 -3.159360 0.000000
CHANNELS 3 Zrotation Xrotation Yrotation
								JOINT lhand
								{
									OFFSET 0 0 0
CHANNELS 3 Zrotation Xrotation Yrotation
									JOINT LFingers
									{
OFFSET 0 -0.712830 0.000000
CHANNELS 3 Zrotation Xrotation Yrotation
										End Site
										{
OFFSET 0 -0.574700 0.000000
										}
									}
								}
								JOINT LThumb
								{
OFFSET 0 0.000000 0.000000
CHANNELS 3 Zrotation Xrotation Yrotation
									End Site
									{
OFFSET 0 -0.583470 0.583470
									}
								}
							}
						}
					}
				}
				JOINT RightCollar
				{
					OFFSET 0 0 0
					CHANNELS 3 Zrotation Yrotation Xrotation
					JOINT RightShoulder
					{
						OFFSET -3.12947 1.60037 -0.00464
CHANNELS 3 Zrotation Xrotation Yrotation
						JOINT RightElbow
						{
OFFSET 0 -5.341940 0.000000
CHANNELS 3 Zrotation Xrotation Yrotation
							JOINT RightWrist
							{
OFFSET 0 -3.193510 0.000000
CHANNELS 3 Zrotation Xrotation Yrotation
								JOINT rhand
								{
									OFFSET 0 0 0
CHANNELS 3 Zrotation Xrotation Yrotation
									JOINT RFingers
									{
OFFSET 0 -0.743860 0.000000
CHANNELS 3 Zrotation Xrotation Yrotation
										End Site
										{
OFFSET 0 -0.599720 0.000000
										}
									}
								}
								JOINT RThumb
								{
OFFSET 0 0.000000 0.000000
CHANNELS 3 Zrotation Xrotation Yrotation
									End Site
									{
OFFSET 0 -0.608880 0.608880
									}
								}
							}
						}
					}
				}
			}
		}
	}
}
MOTION
Frames: 5
Frame Time: 0.008333333333333333
-7.616900 14.847200 -35.785800 2.847500 60.817700 4.795800 0.000000 0.000000 0.000000 -1.861800 9.432700 -17.817700 8.728800 16.630000 55.147300 2.496200 7.601800 -33.283400 1.535600 -7.823200 -22.178400 0.000000 0.000000 0.000000 -10.520700 19.313500 -37.940600 -8.995000 -16.804500 56.073000 0.048200 25.010000 -17.335500 -0.665000 5.215400 -14.524000 -8.168000 -5.306800 16.541700 4.381200 -8.219000 -0.773900 11.287400 -3.512900 -8.269200 -17.864200 -17.725600 9.153800 19.038600 -25.857800 2.635000 7.268000 -13.228400 4.162000 0.000000 0.000000 0.000000 3.512900 4.540700 -21.956400 18.806700 -29.177800 4.936300 28.498400 18.793800 -8.901100 0.000000 0.000000 0.000000 -7.125000 0.000000 0.000000 1.391800 40.080700 0.168800 0.000000 0.000000 0.000000 -17.582300 8.957600 30.735900 -20.074100 -30.731500 -5.569200 -14.555900 9.336100 38.278900 0.000000 0.000000 0.000000 7.125000 0.000000 -0.000000 27.550600 67.244600 -15.214500
-7.619796 14.877003 -35.796741 3.645848 59.771172 5.529932 0.000000 0.000000 0.000000 -2.587022 10.155208 -17.320003 8.504425 16.478038 54.360078 2.458713 7.783693 -33.172402 1.513672 -7.769700 -22.016685 0.000000 0.000000 0.000000 -11.049489 19.604063 -38.351345 -8.884322 -16.732723 55.689193 0.321994 25.944490 -16.215319 -0.512317 4.587749 -12.736471 -8.581550 -5.343754 15.977876 4.366634 -8.318495 -0.835472 11.441132 -3.573907 -7.942833 -17.760145 -17.788646 9.024731 18.773809 -25.926633 2.873077 7.148410 -13.248418 4.215019 0.000000 0.000000 0.000000 4.223950 2.917373 -21.019198 15.476518 -24.805119 3.423712 27.718865 24.809231 -10.686810 0.000000 0.000000 0.000000 -7.125000 0.000000 0.000000 0.580586 42.015066 0.037650 0.000000 0.000000 0.000000 -17.155526 9.213070 27.907068 -18.754802 -29.112750 -4.911056 -17.450390 9.436810 39.281690 0.000000 0.000000 0.000000 7.125000 0.000000 0.000000 25.675480 68.996430 -15.126185
-7.632325 14.885969 -35.807804 4.187911 59.105042 5.853555 0.000000 0.000000 0.000000 -3.014003 10.544329 -16.870232 8.391662 16.399942 53.961526 2.458354 7.767752 -33.161444 1.505809 -7.750406 -21.958501 0.000000 0.000000 0.000000 -11.394098 19.793917 -38.523002 -8.829586 -16.696740 55.498741 0.534627 26.652232 -15.358927 -0.407534 4.096041 -11.347325 -8.805160 -5.443645 15.896027 4.300193 -8.502050 -0.951358 11.521606 -3.650822 -7.959649 -17.697128 -17.678291 9.323921 18.751512 -25.810397 2.911617 7.185621 -13.205344 4.147030 0.000000 0.000000 0.000000 4.838969 1.571956 -18.940126 13.332545 -21.772298 2.575562 25.053392 27.940789 -8.170833 0.000000 0.000000 0.000000 -7.125000 0.000000 0.000000 -1.566759 38.981400 -0.232238 0.000000 0.000000 0.000000 -16.794245 9.513161 25.796305 -17.530443 -27.551508 -4.329920 -18.264745 8.672634 39.640286 0.000000 0.000000 0.000000 7.125000 0.000000 0.000000 25.258944 69.565476 -15.187487
-7.646633 14.880856 -35.818964 4.172494 58.719952 5.660138 0.000000 0.000000 0.000000 -3.030928 10.876640 -16.731681 8.408857 16.411928 54.022433 2.430613 8.034804 -33.155687 1.555934 -7.872129 -22.326439 0.000000 0.000000 0.000000 -11.408895 20.006391 -38.551712 -8.798088 -16.676034 55.389095 0.664020 27.029019 -14.800761 -0.354749 3.825306 -10.585858 -8.752245 -5.550703 15.882058 4.325151 -8.633520 -0.993927 11.542194 -3.714856 -7.969688 -17.624439 -17.715616 9.226380 18.664014 -25.840980 2.938266 7.136869 -13.213363 4.154029 0.000000 0.000000 0.000000 5.270672 0.341054 -16.802506 12.343543 -20.317759 2.220171 23.238649 30.947273 -8.955035 0.000000 0.000000 0.000000 -7.125000 0.000000 0.000000 -3.217653 39.691255 -0.421530 0.000000 0.000000 0.000000 -16.597910 9.626748 24.205436 -16.427663 -26.097001 -3.832233 -18.362900 8.965965 39.937684 0.000000 0.000000 0.000000 7.125000 0.000000 0.000000 25.602438 69.854050 -15.564634
-7.666034 14.868053 -35.830816 3.916423 58.548450 5.287439 0.000000 0.000000 0.000000 -2.836482 11.097081 -16.772843 8.479535 16.460875 54.272203 2.327620 8.733733 -32.976965 1.523116 -7.792742 -22.086391 0.000000 0.000000 0.000000 -11.268680 20.051753 -38.642084 -8.811876 -16.685118 55.437285 0.760676 27.256375 -14.336508 -0.305316 3.552501 -9.820957 -8.558631 -5.579137 15.883455 4.372651 -8.630305 -1.015204 11.488266 -3.715817 -8.014830 -17.736219 -17.758868 9.151829 18.771709 -25.907596 2.895999 7.161892 -13.243908 4.194868 0.000000 0.000000 0.000000 5.706743 -0.591996 -16.572970 12.400601 -20.402646 2.240021 23.676416 31.083449 -10.342384 0.000000 0.000000 0.000000 -7.125000 0.000000 0.000000 -2.997314 41.233705 -0.284213 0.000000 0.000000 0.000000 -16.667401 9.721709 23.887563 -15.553487 -24.911436 -3.455750 -18.211329 9.664183 39.654880 0.000000 0.000000 0.000000 7.125000 0.000000 0.000000 25.346831 69.560787 -15.240834
